<?xml version="1.0" encoding="utf-8"?>
<!-- Svg Vector Icons : http://www.onlinewebfonts.com/icon -->
<!DOCTYPE svg PUBLIC "-//W3C//DTD SVG 1.1//EN" "http://www.w3.org/Graphics/SVG/1.1/DTD/svg11.dtd">
<svg version="1.1" xmlns="http://www.w3.org/2000/svg" xmlns:xlink="http://www.w3.org/1999/xlink" x="0px" y="0px" viewBox="0 0 1000 1000" enable-background="new 0 0 1000 1000" xml:space="preserve">
<metadata> Svg Vector Icons : http://www.onlinewebfonts.com/icon </metadata>
<g><g transform="translate(0.000000,511.000000) scale(0.100000,-0.100000)"><path d="M3970.6,4373.2c-77.1-35.1-93.5-63.1-299.2-523.5l-56.1-126.2l-67.8,95.8c-224.4,306.2-647.4,409-984,238.4c-130.9-65.4-280.5-226.7-345.9-369.3c-51.4-109.9-60.8-168.3-60.8-320.2c0-217.4,46.7-348.2,184.6-500.2l86.5-95.8h-434.7c-476.8,0-542.2-14-593.7-128.5c-21-42.1-28.1-285.1-28.1-841.4v-780.6l-109.9-77.1C1093.5,830,801.3,542.5,654,346.2c-156.6-208-331.9-537.6-411.3-776C128.2-768.7,97.8-972.1,100.1-1388.1c2.3-350.6,9.3-411.3,74.8-659.1C462.4-3148,1357.6-3963.7,2479.4-4150.7c240.7-39.7,712.9-32.7,955.9,14C4538.5-3924,5401-3106,5674.4-2012.1c70.1,278.1,86.5,864.8,35.1,1149.9c-81.8,432.4-266.4,862.5-511.8,1194.4c-149.6,201-434.7,483.8-610,605.3l-130.9,88.8V1828v801.7l-56.1,65.4l-56.1,65.4l-458.1,7l-455.8,7l93.5,121.5c51.4,67.8,102.8,161.3,119.2,210.4l25.7,86.5h343.6c392.7,0,500.2-25.7,649.8-154.3c53.8-44.4,123.9-140.2,161.3-215l65.4-133.2l11.7-726.9l11.7-724.5l180-156.6c98.1-86.5,201-184.7,226.7-219.7c56.1-70.1,56.1-67.8,25.7,39.7c-51.4,180-72.5,465.1-46.7,663.8c51.4,425.4,210.4,743.3,523.5,1056.4c331.9,329.6,694.2,493.2,1149.9,516.5c1065.8,58.4,1930.6-806.3,1872.1-1874.5c-23.4-453.4-189.3-815.7-518.9-1145.2c-236-236.1-427.7-359.9-691.8-444.1c-563.3-177.6-1124.2-95.8-1587,231.4c-58.4,42.1-116.9,81.8-130.9,91.1c-16.3,9.4,4.7-65.4,42.1-165.9c105.2-268.8,179.9-586.6,210.4-895.2l25.7-273.5l212.7-51.4c294.5-74.8,848.4-91.1,1147.6-35.1c1320.5,245.4,2264.8,1311.2,2341.9,2643.4c44.4,757.3-243.1,1528.6-776,2087.2c-771.3,811-1895.5,1091.5-2951.9,738.6c-137.9-46.7-336.6-130.9-439.4-187l-191.6-102.8l-687.2,313.2c-376.3,170.6-712.9,317.9-743.2,324.9C4073.4,4401.3,4012.7,4391.9,3970.6,4373.2z M3143.2,3662.7c142.6-100.5,184.6-310.9,93.5-472.1l-49.1-91.2l-44.4,70.1c-46.7,81.8-123.9,116.9-245.4,116.9c-63.1,0-100.5-18.7-163.6-81.8c-44.4-44.4-86.5-81.8-93.5-81.8c-4.7,0-30.4,49.1-56.1,107.5C2432.7,3571.6,2834.7,3882.4,3143.2,3662.7z M3031,2223c156.6-79.5,189.3-259.4,72.5-390.3l-67.8-77.1l44.4-81.8c23.4-44.4,42.1-105.2,44.4-133.2c0-51.4-7-53.8-198.7-53.8c-233.7,0-250.1,16.4-175.3,163.6l49.1,95.8l-60.8,70.1c-32.7,39.7-65.4,95.8-72.5,126.2c-23.4,88.8,35.1,219.7,116.9,271.1C2869.8,2267.4,2939.9,2269.7,3031,2223z M3369.9,374.2c530.6-142.6,993.3-546.9,1196.7-1042.4c187-460.4,170.6-1026-39.7-1446.7c-222-444.1-556.3-747.9-1000.3-909.2c-1019-371.6-2131.6,250.1-2351.3,1313.5C974.2-736,1610,208.3,2598.6,402.3C2799.6,442,3173.6,428,3369.9,374.2z"/></g></g>
</svg>